<svg xmlns="http://www.w3.org/2000/svg" viewBox="0 0 48 48">
    <path fill="#EA4335" d="M24 9.5c3.4 0 6.4 1.2 8.8 3.5l6.6-6.6C35.4 2.6 30 0 24 0 14.6 0 6.4 5.4 2.4 13.3l7.7 6c1.9-5.7 7.2-9.8 13.9-9.8z"/>
    <path fill="#4285F4" d="M46.5 24.5c0-1.6-.1-2.7-.4-3.9H24v7.4h12.7c-.5 3-2.2 5.5-4.7 7.2l7.3 5.7c4.3-4 7.2-9.9 7.2-16.4z"/>
    <path fill="#FBBC05" d="M10.1 28.9c-.5-1.4-.8-2.9-.8-4.4s.3-3 .8-4.4l-7.7-6C.8 16.9 0 20.4 0 24c0 3.6.8 7.1 2.4 10.3l7.7-5.4z"/>
    <path fill="#34A853" d="M24 48c6.5 0 11.9-2.1 15.9-5.8l-7.3-5.7c-2 1.4-4.6 2.2-8.6 2.2-6.7 0-12-4.1-13.9-9.8l-7.7 6C6.4 42.6 14.6 48 24 48z"/>
</svg>
